<svg width="13" height="15" viewBox="0 0 13 15" fill="none" xmlns="http://www.w3.org/2000/svg">
<path d="M5.50008 8.83342V10.1667C4.43922 10.1667 3.4218 10.5882 2.67165 11.3383C1.92151 12.0885 1.50008 13.1059 1.50008 14.1667H0.166748C0.166748 12.7523 0.728651 11.3957 1.72885 10.3955C2.72904 9.39532 4.08559 8.83342 5.50008 8.83342ZM5.50008 8.16675C3.29008 8.16675 1.50008 6.37675 1.50008 4.16675C1.50008 1.95675 3.29008 0.166748 5.50008 0.166748C7.71008 0.166748 9.50008 1.95675 9.50008 4.16675C9.50008 6.37675 7.71008 8.16675 5.50008 8.16675ZM5.50008 6.83342C6.97341 6.83342 8.16675 5.64008 8.16675 4.16675C8.16675 2.69341 6.97341 1.50008 5.50008 1.50008C4.02675 1.50008 2.83341 2.69341 2.83341 4.16675C2.83341 5.64008 4.02675 6.83342 5.50008 6.83342ZM11.5001 10.8334H12.1667V14.1667H6.83342V10.8334H7.50008V10.1667C7.50008 9.63632 7.71079 9.12761 8.08587 8.75253C8.46094 8.37746 8.96965 8.16675 9.50008 8.16675C10.0305 8.16675 10.5392 8.37746 10.9143 8.75253C11.2894 9.12761 11.5001 9.63632 11.5001 10.1667V10.8334ZM10.1667 10.8334V10.1667C10.1667 9.98994 10.0965 9.82037 9.97149 9.69534C9.84646 9.57032 9.67689 9.50008 9.50008 9.50008C9.32327 9.50008 9.1537 9.57032 9.02868 9.69534C8.90365 9.82037 8.83342 9.98994 8.83342 10.1667V10.8334H10.1667Z" fill="#757575"/>
</svg>
