<svg width="13" height="15" viewBox="0 0 13 15" fill="none" xmlns="http://www.w3.org/2000/svg">
<path d="M2.16659 9.49992H3.49992V12.8333H11.4999V2.16659H3.49992V5.49992H2.16659V1.49992C2.16659 1.32311 2.23682 1.15354 2.36185 1.02851C2.48687 0.90349 2.65644 0.833252 2.83325 0.833252H12.1666C12.3434 0.833252 12.513 0.90349 12.638 1.02851C12.763 1.15354 12.8333 1.32311 12.8333 1.49992V13.4999C12.8333 13.6767 12.763 13.8463 12.638 13.9713C12.513 14.0963 12.3434 14.1666 12.1666 14.1666H2.83325C2.65644 14.1666 2.48687 14.0963 2.36185 13.9713C2.23682 13.8463 2.16659 13.6767 2.16659 13.4999V9.49992ZM6.16659 6.83325V4.83325L9.49992 7.49992L6.16659 10.1666V8.16658H0.833252V6.83325H6.16659Z" fill="#757575"/>
</svg>
