<svg width="19" height="20" viewBox="0 0 19 20" fill="none" xmlns="http://www.w3.org/2000/svg">
<g clip-path="url(#clip0_1095_4445)">
<path d="M3.16668 6.83325H15.8333V17.1249C15.8333 17.3349 15.7499 17.5362 15.6015 17.6847C15.453 17.8332 15.2516 17.9166 15.0417 17.9166H3.95834C3.74838 17.9166 3.54702 17.8332 3.39855 17.6847C3.25008 17.5362 3.16668 17.3349 3.16668 17.1249V6.83325ZM4.75001 8.41658V16.3333H14.25V8.41658H4.75001ZM7.12501 9.99992H8.70834V14.7499H7.12501V9.99992ZM10.2917 9.99992H11.875V14.7499H10.2917V9.99992ZM5.54168 4.45825V2.87492C5.54168 2.66496 5.62508 2.46359 5.77355 2.31513C5.92202 2.16666 6.12338 2.08325 6.33334 2.08325H12.6667C12.8766 2.08325 13.078 2.16666 13.2265 2.31513C13.3749 2.46359 13.4583 2.66496 13.4583 2.87492V4.45825H17.4167V6.04158H1.58334V4.45825H5.54168ZM7.12501 3.66659V4.45825H11.875V3.66659H7.12501Z" fill="#757575"/>
</g>
<defs>
<clipPath id="clip0_1095_4445">
<rect width="19" height="19" fill="white" transform="translate(0 0.5)"/>
</clipPath>
</defs>
</svg>
