<svg width="16" height="17" viewBox="0 0 16 17" fill="none" xmlns="http://www.w3.org/2000/svg">
<g id="Group">
<path id="Vector" d="M10.3859 8.49999H12.4912L9.68419 11.0263L6.87718 8.49999H8.98244V5.97368H10.3859V8.49999ZM11.7894 3.44736H4.77191V13.5526H14.5965V5.97368H11.7894V3.44736ZM3.36841 2.81073C3.36841 2.46463 3.68209 2.1842 4.06946 2.1842H12.4912L16 5.3421V14.1798C16.0006 14.2627 15.9831 14.345 15.9484 14.4218C15.9138 14.4987 15.8626 14.5686 15.7979 14.6277C15.7332 14.6867 15.6562 14.7337 15.5713 14.766C15.4864 14.7983 15.3953 14.8152 15.3031 14.8158H4.06525C3.88095 14.8146 3.70456 14.7483 3.57417 14.631C3.44379 14.5138 3.36988 14.3551 3.36841 14.1893V2.81073Z" fill="#03053D"/>
</g>
</svg>
